# File created by Blade
# Date/Time:  Thu Sep 25 19:32:06 2014
# Frame Rate: 120.000 fps
#------------------------------------------------------
:FULLY-SPECIFIED
:DEGREES
2446
root 9.216565 32.134864 -2.516741 6.243774 -20.306178 -10.130666
Spine -3.858028 8.474035 -4.405900
Head 0.294724 2.617178 12.204600
LeftShoulder -8.336583 21.860927 6.844042
LeftArm 17.481955 19.751946 -65.150073
LeftForeArm 3.890016 -0.000000 13.099801
LeftHand -26.028265 0.000000 -5.169717
LeftHandThumb1 -26.253704 0.000000 33.147579
RightShoulder -18.194652 20.102087 -44.396015
RightArm 3.211928 25.372318 18.608863
RightForeArm 14.788938 0.000000 21.184940
RightHand 1.819387 -0.000000 -2.930758
RightHandThumb1 -24.326973 -0.000000 -32.862282
LeftUpLeg -17.274993 12.069667 -2.370802
LeftLeg 31.707252 -0.000000 -0.000000
LeftFoot -27.587160 15.500375 -16.120966
LeftToeBase 9.357471 -0.000000 -0.000000
RightUpLeg 7.580836 2.994306 19.527441
RightLeg -1.224663 -0.000000 0.000000
RightFoot -8.712134 -0.223572 -3.664401
RightToeBase -3.195296 -0.000000 0.000000
2447
root 9.207309 32.136515 -2.504282 6.309159 -20.328864 -10.102044
Spine -3.816736 8.445806 -4.154409
Head 0.366427 2.339838 12.125482
LeftShoulder -8.266499 21.808639 6.916836
LeftArm 17.503443 19.762951 -65.191807
LeftForeArm 3.870930 0.000000 13.151075
LeftHand -25.933737 -0.000000 -5.236679
LeftHandThumb1 -26.253704 0.000000 33.147579
RightShoulder -18.192581 20.041421 -44.324043
RightArm 3.083071 25.230334 18.721633
RightForeArm 14.599433 0.000000 21.154049
RightHand 1.742846 -0.000000 -3.066836
RightHandThumb1 -24.326973 -0.000000 -32.862282
LeftUpLeg -17.271511 12.069785 -2.393166
LeftLeg 31.605128 -0.000000 -0.000000
LeftFoot -27.588073 15.502799 -16.062047
LeftToeBase 9.359143 -0.000000 -0.000000
RightUpLeg 7.534122 3.036429 19.505277
RightLeg -1.209061 -0.000000 0.000000
RightFoot -8.717738 -0.228384 -3.626521
RightToeBase -3.178328 -0.000000 0.000000
2448
root 9.201550 32.137076 -2.486412 6.306958 -20.336492 -10.017510
Spine -3.698997 8.338354 -3.947403
Head 0.414978 2.115763 12.045907
LeftShoulder -8.285700 21.741041 6.975646
LeftArm 17.545797 19.816542 -65.221114
LeftForeArm 3.812347 0.000000 13.214461
LeftHand -25.871360 0.000000 -4.898600
LeftHandThumb1 -26.253704 0.000000 33.147579
RightShoulder -18.140667 20.038230 -44.220006
RightArm 2.939246 25.035575 18.793888
RightForeArm 14.410668 -0.000000 21.091741
RightHand 1.678746 -0.000000 -3.176800
RightHandThumb1 -24.326973 -0.000000 -32.862282
LeftUpLeg -17.234049 12.113615 -2.470185
LeftLeg 31.541141 -0.000000 -0.000000
LeftFoot -27.555997 15.454151 -16.030454
LeftToeBase 9.344112 -0.000000 -0.000000
RightUpLeg 7.543326 3.025619 19.423838
RightLeg -1.206233 -0.000000 0.000000
RightFoot -8.776235 -0.211141 -3.615107
RightToeBase -3.106053 -0.000000 0.000000
2449
root 9.192794 32.138081 -2.461972 6.286541 -20.418125 -9.945053
Spine -3.582756 8.320835 -3.732529
Head 0.508520 1.872467 11.983414
LeftShoulder -8.305092 21.726419 7.027514
LeftArm 17.638537 19.798727 -65.233714
LeftForeArm 3.891588 -0.000000 13.269348
LeftHand -25.845067 -0.000000 -5.020564
LeftHandThumb1 -26.253704 0.000000 33.147579
RightShoulder -18.106098 19.930951 -44.124297
RightArm 2.831994 24.976262 18.935557
RightForeArm 14.073852 -0.000000 21.059206
RightHand 1.663922 0.000000 -3.158261
RightHandThumb1 -24.326973 -0.000000 -32.862282
LeftUpLeg -17.150140 12.280028 -2.550334
LeftLeg 31.462897 -0.000000 -0.000000
LeftFoot -27.579147 15.390644 -16.064822
LeftToeBase 9.369894 -0.000000 -0.000000
RightUpLeg 7.606024 3.054626 19.344179
RightLeg -1.211334 -0.000000 0.000000
RightFoot -8.811547 -0.157931 -3.605229
RightToeBase -3.062860 -0.000000 0.000000
2450
root 9.185319 32.139889 -2.447401 6.338245 -20.454838 -9.894753
Spine -3.523990 8.311937 -3.500923
Head 0.586689 1.535062 11.894146
LeftShoulder -8.317781 21.727994 7.080584
LeftArm 17.793595 19.821118 -65.217689
LeftForeArm 3.875941 -0.000000 13.333728
LeftHand -25.851086 -0.000000 -4.794204
LeftHandThumb1 -26.253704 0.000000 33.147579
RightShoulder -18.124506 19.852507 -44.065453
RightArm 2.721451 24.855524 19.075561
RightForeArm 13.738613 0.000000 21.014899
RightHand 1.602005 -0.000000 -3.218830
RightHandThumb1 -24.326973 -0.000000 -32.862282
LeftUpLeg -17.144092 12.303048 -2.593357
LeftLeg 31.374452 -0.000000 -0.000000
LeftFoot -27.556137 15.352724 -16.024424
LeftToeBase 9.371219 -0.000000 -0.000000
RightUpLeg 7.569479 3.103014 19.297095
RightLeg -1.187353 -0.000000 0.000000
RightFoot -8.834068 -0.148583 -3.530880
RightToeBase -3.065968 -0.000000 0.000000
2451
root 9.179508 32.142098 -2.435274 6.404341 -20.490440 -9.824669
Spine -3.475326 8.278785 -3.294411
Head 0.654109 1.202963 11.815325
LeftShoulder -8.322516 21.680935 7.139247
LeftArm 17.850102 19.768500 -65.247964
LeftForeArm 3.950911 0.000000 13.453838
LeftHand -25.885209 -0.000000 -5.135259
LeftHandThumb1 -26.253704 0.000000 33.147579
RightShoulder -18.136724 19.824710 -43.984802
RightArm 2.602496 24.624907 19.171839
RightForeArm 13.409070 -0.000000 20.969112
RightHand 1.530344 -0.000000 -3.263661
RightHandThumb1 -24.326973 -0.000000 -32.862282
LeftUpLeg -17.174909 12.331226 -2.670196
LeftLeg 31.301543 -0.000000 -0.000000
LeftFoot -27.510585 15.347225 -15.993349
LeftToeBase 9.323479 -0.000000 -0.000000
RightUpLeg 7.502670 3.146806 19.223365
RightLeg -1.161367 -0.000000 0.000000
RightFoot -8.879147 -0.138455 -3.555561
RightToeBase -2.990413 -0.000000 0.000000
2452
root 9.170296 32.144063 -2.418923 6.443687 -20.540044 -9.759421
Spine -3.415503 8.193757 -3.074163
Head 0.784193 0.891689 11.686724
LeftShoulder -8.350245 21.674678 7.176385
LeftArm 17.887495 19.633195 -65.295950
LeftForeArm 3.884596 -0.000000 13.576791
LeftHand -25.906948 -0.000000 -4.671758
LeftHandThumb1 -26.253704 0.000000 33.147579
RightShoulder -18.065274 19.813946 -43.885243
RightArm 2.474732 24.425568 19.275306
RightForeArm 13.076308 -0.000000 20.900487
RightHand 1.507745 0.000000 -3.218699
RightHandThumb1 -24.326973 -0.000000 -32.862282
LeftUpLeg -17.163089 12.403478 -2.745785
LeftLeg 31.217101 -0.000000 -0.000000
LeftFoot -27.511201 15.352276 -16.032650
LeftToeBase 9.310893 -0.000000 -0.000000
RightUpLeg 7.477507 3.171124 19.156103
RightLeg -1.141762 -0.000000 0.000000
RightFoot -8.907723 -0.094753 -3.509700
RightToeBase -2.970143 -0.000000 0.000000
2453
root 9.163076 32.145680 -2.405608 6.484129 -20.591334 -9.713390
Spine -3.322604 8.159321 -2.821440
Head 0.874412 0.527740 11.540131
LeftShoulder -8.339338 21.647355 7.215460
LeftArm 17.918885 19.540869 -65.333697
LeftForeArm 4.022368 -0.000000 13.767643
LeftHand -25.879260 -0.000000 -4.458974
LeftHandThumb1 -26.253704 0.000000 33.147579
RightShoulder -18.056052 19.730498 -43.765149
RightArm 2.424409 24.291760 19.380639
RightForeArm 12.772962 -0.000000 20.831591
RightHand 1.447894 -0.000000 -3.307498
RightHandThumb1 -24.326973 -0.000000 -32.862282
LeftUpLeg -17.163544 12.424588 -2.789313
LeftLeg 31.164587 -0.000000 -0.000000
LeftFoot -27.518458 15.335439 -16.059876
LeftToeBase 9.314099 -0.000000 -0.000000
RightUpLeg 7.451586 3.206996 19.106374
RightLeg -1.117274 -0.000000 0.000000
RightFoot -8.925351 -0.049060 -3.489092
RightToeBase -2.995736 -0.000000 0.000000
2454
root 9.152669 32.148852 -2.389277 6.524969 -20.680154 -9.637751
Spine -3.255790 8.133695 -2.633856
Head 0.994263 0.186599 11.443337
LeftShoulder -8.403023 21.603302 7.248288
LeftArm 17.967320 19.428287 -65.361405
LeftForeArm 4.068879 -0.000000 13.882726
LeftHand -25.970738 -0.000000 -4.511909
LeftHandThumb1 -26.253704 0.000000 33.147579
RightShoulder -18.040053 19.703919 -43.636312
RightArm 2.333780 24.124514 19.505030
RightForeArm 12.421894 -0.000000 20.800483
RightHand 1.424720 -0.000000 -3.283100
RightHandThumb1 -24.326973 -0.000000 -32.862282
LeftUpLeg -17.152149 12.491267 -2.849735
LeftLeg 31.084469 -0.000000 -0.000000
LeftFoot -27.477377 15.268720 -16.045601
LeftToeBase 9.296535 -0.000000 -0.000000
RightUpLeg 7.436641 3.283103 19.031949
RightLeg -1.110068 -0.000000 0.000000
RightFoot -8.949718 -0.039760 -3.474639
RightToeBase -2.921886 -0.000000 0.000000
2455
root 9.142506 32.150091 -2.372756 6.562192 -20.739781 -9.570242
Spine -3.201110 8.133043 -2.426150
Head 1.159940 -0.278724 11.309428
LeftShoulder -8.334378 21.553050 7.338549
LeftArm 17.943582 19.293411 -65.438279
LeftForeArm 4.067458 -0.000000 14.059255
LeftHand -26.029961 -0.000000 -4.420362
LeftHandThumb1 -26.253704 0.000000 33.147579
RightShoulder -18.019649 19.706597 -43.568622
RightArm 2.171634 23.912296 19.632637
RightForeArm 12.098691 -0.000000 20.778938
RightHand 1.343917 0.000000 -3.291513
RightHandThumb1 -24.326973 -0.000000 -32.862282
LeftUpLeg -17.142115 12.560522 -2.926332
LeftLeg 31.008729 -0.000000 -0.000000
LeftFoot -27.481646 15.289137 -16.040515
LeftToeBase 9.343738 -0.000000 -0.000000
RightUpLeg 7.419216 3.323585 18.964925
RightLeg -1.096402 -0.000000 0.000000
RightFoot -8.980205 -0.013282 -3.474010
RightToeBase -2.906674 -0.000000 0.000000
